<mxfile host="app.diagrams.net" modified="2021-04-12T16:00:38.612Z" agent="5.0 (Windows NT 10.0; Win64; x64) AppleWebKit/537.36 (KHTML, like Gecko) Chrome/88.0.4324.150 Safari/537.36" etag="zgi1OJxxlnlRegt1DLp9" version="14.5.10" type="github">
  <diagram id="fWlvHiTpuMAYNHpg1gDB" name="第 1 页">
    <mxGraphModel dx="733" dy="547" grid="1" gridSize="10" guides="1" tooltips="1" connect="1" arrows="1" fold="1" page="1" pageScale="1" pageWidth="827" pageHeight="1169" math="0" shadow="0">
      <root>
        <mxCell id="0" />
        <mxCell id="1" parent="0" />
        <mxCell id="ouAkO3ptA8BJZqxcXkxW-4" value="" style="edgeStyle=orthogonalEdgeStyle;rounded=0;orthogonalLoop=1;jettySize=auto;html=1;" edge="1" parent="1" source="ouAkO3ptA8BJZqxcXkxW-1" target="ouAkO3ptA8BJZqxcXkxW-3">
          <mxGeometry relative="1" as="geometry" />
        </mxCell>
        <mxCell id="ouAkO3ptA8BJZqxcXkxW-1" value="图片" style="rounded=0;whiteSpace=wrap;html=1;" vertex="1" parent="1">
          <mxGeometry x="360" y="100" width="80" height="40" as="geometry" />
        </mxCell>
        <mxCell id="ouAkO3ptA8BJZqxcXkxW-5" value="" style="edgeStyle=orthogonalEdgeStyle;rounded=0;orthogonalLoop=1;jettySize=auto;html=1;" edge="1" parent="1" source="ouAkO3ptA8BJZqxcXkxW-2" target="ouAkO3ptA8BJZqxcXkxW-3">
          <mxGeometry relative="1" as="geometry" />
        </mxCell>
        <mxCell id="ouAkO3ptA8BJZqxcXkxW-2" value="视频" style="rounded=0;whiteSpace=wrap;html=1;" vertex="1" parent="1">
          <mxGeometry x="460" y="100" width="80" height="40" as="geometry" />
        </mxCell>
        <mxCell id="ouAkO3ptA8BJZqxcXkxW-9" value="" style="edgeStyle=orthogonalEdgeStyle;rounded=0;orthogonalLoop=1;jettySize=auto;html=1;" edge="1" parent="1" source="ouAkO3ptA8BJZqxcXkxW-3" target="ouAkO3ptA8BJZqxcXkxW-8">
          <mxGeometry relative="1" as="geometry" />
        </mxCell>
        <mxCell id="ouAkO3ptA8BJZqxcXkxW-3" value="数据库储存Hash值" style="rounded=0;whiteSpace=wrap;html=1;" vertex="1" parent="1">
          <mxGeometry x="390" y="180" width="120" height="60" as="geometry" />
        </mxCell>
        <mxCell id="ouAkO3ptA8BJZqxcXkxW-11" value="" style="edgeStyle=orthogonalEdgeStyle;rounded=0;orthogonalLoop=1;jettySize=auto;html=1;" edge="1" parent="1" source="ouAkO3ptA8BJZqxcXkxW-8" target="ouAkO3ptA8BJZqxcXkxW-10">
          <mxGeometry relative="1" as="geometry" />
        </mxCell>
        <mxCell id="ouAkO3ptA8BJZqxcXkxW-13" value="" style="edgeStyle=orthogonalEdgeStyle;rounded=0;orthogonalLoop=1;jettySize=auto;html=1;" edge="1" parent="1" source="ouAkO3ptA8BJZqxcXkxW-8" target="ouAkO3ptA8BJZqxcXkxW-12">
          <mxGeometry relative="1" as="geometry" />
        </mxCell>
        <mxCell id="ouAkO3ptA8BJZqxcXkxW-8" value="是否识别过" style="rhombus;whiteSpace=wrap;html=1;rounded=0;" vertex="1" parent="1">
          <mxGeometry x="410" y="270" width="80" height="80" as="geometry" />
        </mxCell>
        <mxCell id="ouAkO3ptA8BJZqxcXkxW-10" value="查询识别结果" style="whiteSpace=wrap;html=1;rounded=0;" vertex="1" parent="1">
          <mxGeometry x="390" y="380" width="120" height="60" as="geometry" />
        </mxCell>
        <mxCell id="ouAkO3ptA8BJZqxcXkxW-15" value="" style="edgeStyle=orthogonalEdgeStyle;rounded=0;orthogonalLoop=1;jettySize=auto;html=1;" edge="1" parent="1" source="ouAkO3ptA8BJZqxcXkxW-12" target="ouAkO3ptA8BJZqxcXkxW-14">
          <mxGeometry relative="1" as="geometry" />
        </mxCell>
        <mxCell id="ouAkO3ptA8BJZqxcXkxW-21" value="" style="edgeStyle=orthogonalEdgeStyle;rounded=0;orthogonalLoop=1;jettySize=auto;html=1;" edge="1" parent="1" source="ouAkO3ptA8BJZqxcXkxW-12" target="ouAkO3ptA8BJZqxcXkxW-20">
          <mxGeometry relative="1" as="geometry" />
        </mxCell>
        <mxCell id="ouAkO3ptA8BJZqxcXkxW-12" value="图片/视频" style="rhombus;whiteSpace=wrap;html=1;rounded=0;" vertex="1" parent="1">
          <mxGeometry x="540" y="270" width="80" height="80" as="geometry" />
        </mxCell>
        <mxCell id="ouAkO3ptA8BJZqxcXkxW-26" value="" style="edgeStyle=orthogonalEdgeStyle;rounded=0;orthogonalLoop=1;jettySize=auto;html=1;" edge="1" parent="1" source="ouAkO3ptA8BJZqxcXkxW-14" target="ouAkO3ptA8BJZqxcXkxW-25">
          <mxGeometry relative="1" as="geometry" />
        </mxCell>
        <mxCell id="ouAkO3ptA8BJZqxcXkxW-14" value="YCbCr转换" style="whiteSpace=wrap;html=1;rounded=0;" vertex="1" parent="1">
          <mxGeometry x="520" y="380" width="120" height="60" as="geometry" />
        </mxCell>
        <mxCell id="ouAkO3ptA8BJZqxcXkxW-16" value="是" style="text;html=1;strokeColor=none;fillColor=none;align=center;verticalAlign=middle;whiteSpace=wrap;rounded=0;" vertex="1" parent="1">
          <mxGeometry x="450" y="350" width="40" height="20" as="geometry" />
        </mxCell>
        <mxCell id="ouAkO3ptA8BJZqxcXkxW-17" value="否" style="text;html=1;strokeColor=none;fillColor=none;align=center;verticalAlign=middle;whiteSpace=wrap;rounded=0;" vertex="1" parent="1">
          <mxGeometry x="480" y="310" width="40" height="20" as="geometry" />
        </mxCell>
        <mxCell id="ouAkO3ptA8BJZqxcXkxW-18" value="图片" style="text;html=1;strokeColor=none;fillColor=none;align=center;verticalAlign=middle;whiteSpace=wrap;rounded=0;" vertex="1" parent="1">
          <mxGeometry x="580" y="350" width="40" height="20" as="geometry" />
        </mxCell>
        <mxCell id="ouAkO3ptA8BJZqxcXkxW-24" value="" style="edgeStyle=orthogonalEdgeStyle;rounded=0;orthogonalLoop=1;jettySize=auto;html=1;entryX=1;entryY=0.5;entryDx=0;entryDy=0;" edge="1" parent="1" source="ouAkO3ptA8BJZqxcXkxW-20" target="ouAkO3ptA8BJZqxcXkxW-14">
          <mxGeometry relative="1" as="geometry">
            <mxPoint x="770" y="460" as="targetPoint" />
            <Array as="points">
              <mxPoint x="720" y="410" />
            </Array>
          </mxGeometry>
        </mxCell>
        <mxCell id="ouAkO3ptA8BJZqxcXkxW-20" value="视频帧提取" style="whiteSpace=wrap;html=1;rounded=0;" vertex="1" parent="1">
          <mxGeometry x="660" y="280" width="120" height="60" as="geometry" />
        </mxCell>
        <mxCell id="ouAkO3ptA8BJZqxcXkxW-22" value="视频" style="text;html=1;strokeColor=none;fillColor=none;align=center;verticalAlign=middle;whiteSpace=wrap;rounded=0;" vertex="1" parent="1">
          <mxGeometry x="620" y="310" width="40" height="20" as="geometry" />
        </mxCell>
        <mxCell id="ouAkO3ptA8BJZqxcXkxW-28" value="" style="edgeStyle=orthogonalEdgeStyle;rounded=0;orthogonalLoop=1;jettySize=auto;html=1;" edge="1" parent="1" source="ouAkO3ptA8BJZqxcXkxW-25" target="ouAkO3ptA8BJZqxcXkxW-27">
          <mxGeometry relative="1" as="geometry" />
        </mxCell>
        <mxCell id="ouAkO3ptA8BJZqxcXkxW-30" value="" style="edgeStyle=orthogonalEdgeStyle;rounded=0;orthogonalLoop=1;jettySize=auto;html=1;" edge="1" parent="1" source="ouAkO3ptA8BJZqxcXkxW-25" target="ouAkO3ptA8BJZqxcXkxW-29">
          <mxGeometry relative="1" as="geometry" />
        </mxCell>
        <mxCell id="ouAkO3ptA8BJZqxcXkxW-25" value="是否涉黄" style="rhombus;whiteSpace=wrap;html=1;rounded=0;" vertex="1" parent="1">
          <mxGeometry x="540" y="470" width="80" height="80" as="geometry" />
        </mxCell>
        <mxCell id="ouAkO3ptA8BJZqxcXkxW-27" value="Hash值存入黑名单" style="whiteSpace=wrap;html=1;rounded=0;" vertex="1" parent="1">
          <mxGeometry x="390" y="480" width="120" height="60" as="geometry" />
        </mxCell>
        <mxCell id="ouAkO3ptA8BJZqxcXkxW-29" value="&lt;span&gt;Hash值存入白名单&lt;/span&gt;" style="whiteSpace=wrap;html=1;rounded=0;" vertex="1" parent="1">
          <mxGeometry x="660" y="480" width="120" height="60" as="geometry" />
        </mxCell>
        <mxCell id="ouAkO3ptA8BJZqxcXkxW-31" value="是" style="text;html=1;strokeColor=none;fillColor=none;align=center;verticalAlign=middle;whiteSpace=wrap;rounded=0;" vertex="1" parent="1">
          <mxGeometry x="510" y="490" width="40" height="20" as="geometry" />
        </mxCell>
        <mxCell id="ouAkO3ptA8BJZqxcXkxW-32" value="否" style="text;html=1;strokeColor=none;fillColor=none;align=center;verticalAlign=middle;whiteSpace=wrap;rounded=0;" vertex="1" parent="1">
          <mxGeometry x="610" y="490" width="40" height="20" as="geometry" />
        </mxCell>
        <mxCell id="ouAkO3ptA8BJZqxcXkxW-36" value="" style="endArrow=classic;html=1;exitX=0.5;exitY=1;exitDx=0;exitDy=0;entryX=0;entryY=0.5;entryDx=0;entryDy=0;" edge="1" parent="1" source="ouAkO3ptA8BJZqxcXkxW-29" target="ouAkO3ptA8BJZqxcXkxW-3">
          <mxGeometry width="50" height="50" relative="1" as="geometry">
            <mxPoint x="420" y="420" as="sourcePoint" />
            <mxPoint x="340" y="510" as="targetPoint" />
            <Array as="points">
              <mxPoint x="720" y="560" />
              <mxPoint x="340" y="560" />
              <mxPoint x="340" y="210" />
            </Array>
          </mxGeometry>
        </mxCell>
        <mxCell id="ouAkO3ptA8BJZqxcXkxW-37" value="" style="endArrow=classic;html=1;exitX=0;exitY=0.5;exitDx=0;exitDy=0;" edge="1" parent="1" source="ouAkO3ptA8BJZqxcXkxW-27">
          <mxGeometry width="50" height="50" relative="1" as="geometry">
            <mxPoint x="420" y="370" as="sourcePoint" />
            <mxPoint x="340" y="510" as="targetPoint" />
          </mxGeometry>
        </mxCell>
      </root>
    </mxGraphModel>
  </diagram>
</mxfile>
